<svg xmlns="http://www.w3.org/2000/svg" width="500" height="500"
    style="width:100%;height:100%;transform:translate3d(0,0,0)" viewBox="0 0 500 500">
    <defs>
        <clipPath id="a">
            <path d="M0 0h500v500H0z" />
        </clipPath>
        <clipPath id="b">
            <path d="M0 0h500v500H0z" />
        </clipPath>
    </defs>
    <g clip-path="url(#a)">
        <g clip-path="url(#b)" style="display:block">
            <g style="display:block">
                <path fill="#EDC966"
                    d="M248.5 65.363c-101.696 0-184.137 82.441-184.137 184.137S146.804 433.637 248.5 433.637 432.637 351.196 432.637 249.5 350.196 65.363 248.5 65.363zm0 306.895c-67.797 0-122.758-54.96-122.758-122.758 0-67.797 54.96-122.758 122.758-122.758 67.797 0 122.758 54.96 122.758 122.758 0 67.797-54.96 122.758-122.758 122.758z" />
                <path fill="#EDC966"
                    d="M-130.602 0c0-83.454 63.848-151.985 145.36-159.436A162.159 162.159 0 0 0 0-160.119c-88.431 0-160.119 71.688-160.119 160.119S-88.431 160.119 0 160.119c4.977 0 9.897-.239 14.758-.683C-66.754 151.985-130.602 83.454-130.602 0z"
                    opacity=".5" style="mix-blend-mode:multiply"
                    transform="matrix(1.15 0 0 1.15 248.5 249.5)" />
                <path fill="#EDC966"
                    d="m89.34 156.862 45.702 45.702c12.444-30.048 36.474-54.078 66.522-66.522L155.862 90.34a185.016 185.016 0 0 0-66.522 66.522zm318.32 185.276-45.702-45.702c-12.444 30.048-36.474 54.078-66.522 66.522l45.702 45.702a185.016 185.016 0 0 0 66.522-66.522zm-318.32 0 45.702-45.702c12.444 30.048 36.474 54.078 66.522 66.522l-45.702 45.702a185.016 185.016 0 0 1-66.522-66.522zm318.32-185.276-45.702 45.702c-12.444-30.048-36.474-54.078-66.522-66.522l45.702-45.702a185.016 185.016 0 0 1 66.522 66.522z" />
                <path fill="#EDC966"
                    d="M371.258 249.5c0 67.797-54.96 122.758-122.758 122.758-67.797 0-122.758-54.96-122.758-122.758 0-67.797 54.96-122.758 122.758-122.758 67.797 0 122.758 54.96 122.758 122.758z" />
                <path fill="#EDC966"
                    d="M281.31 219.209c-8.48-14.51-27.077-23.371-43.592-18.016-9.054 2.936-16.663 10.95-17.669 20.417-3.817 35.947 62.925 17.417 62.03 54.134-.154 6.304-3.557 12.282-8.418 16.3-4.861 4.018-11.052 6.203-17.308 6.998-15.687 1.992-31.67-4.843-41.441-17.168" />
                <path fill="none" stroke="#F24C00" stroke-linecap="round" stroke-linejoin="round"
                    stroke-width="13.8"
                    d="M281.31 219.209c-8.48-14.51-27.077-23.371-43.592-18.016-9.054 2.936-16.663 10.95-17.669 20.417-3.817 35.947 62.925 17.417 62.03 54.134-.154 6.304-3.557 12.282-8.418 16.3-4.861 4.018-11.052 6.203-17.308 6.998-15.687 1.992-31.67-4.843-41.441-17.168" />
                <path fill="#EDC966" d="M248.5 323.675v-24.364" />
                <path fill="none" stroke="#F24C00" stroke-linecap="round" stroke-linejoin="round"
                    stroke-width="13.8" d="M248.5 323.675v-24.364" />
                <path fill="#EDC966" d="M248.5 199.636v-24.311" />
                <path fill="none" stroke="#F24C00" stroke-linecap="round" stroke-linejoin="round"
                    stroke-width="13.8" d="M248.5 199.636v-24.311" />
                <path fill="#EDC966"
                    d="M-68.651-126.496-80.555-138.4A160.883 160.883 0 0 0-138.4-80.555l19.757 19.757c10.703-26.054 28.072-48.662 49.992-65.698zm0 252.992L-80.555 138.4A160.883 160.883 0 0 1-138.4 80.555l19.757-19.757c10.703 26.054 28.072 48.662 49.992 65.698z"
                    opacity=".5" style="mix-blend-mode:multiply"
                    transform="matrix(1.15 0 0 1.15 248.5 249.5)" />
                <path fill="#EDC966"
                    d="M371.258 249.5c0 67.797-54.96 122.758-122.758 122.758-67.797 0-122.758-54.96-122.758-122.758 0-67.797 54.96-122.758 122.758-122.758 67.797 0 122.758 54.96 122.758 122.758z" />
                <path fill="none" stroke="#F24C00" stroke-linecap="round" stroke-linejoin="round"
                    stroke-width="13.8"
                    d="M371.258 249.5c0 67.797-54.96 122.758-122.758 122.758-67.797 0-122.758-54.96-122.758-122.758 0-67.797 54.96-122.758 122.758-122.758 67.797 0 122.758 54.96 122.758 122.758z" />
            </g>
            <g style="display:block">
                <path fill="#EDC966"
                    d="M248.5 65.363c-101.696 0-184.137 82.441-184.137 184.137S146.804 433.637 248.5 433.637 432.637 351.196 432.637 249.5 350.196 65.363 248.5 65.363zm0 306.895c-67.797 0-122.758-54.96-122.758-122.758 0-67.797 54.96-122.758 122.758-122.758 67.797 0 122.758 54.96 122.758 122.758 0 67.797-54.96 122.758-122.758 122.758z" />
                <path fill="#EDC966"
                    d="M-130.602 0c0-83.454 63.848-151.985 145.36-159.436A162.159 162.159 0 0 0 0-160.119c-88.431 0-160.119 71.688-160.119 160.119S-88.431 160.119 0 160.119c4.977 0 9.897-.239 14.758-.683C-66.754 151.985-130.602 83.454-130.602 0z"
                    opacity=".5" style="mix-blend-mode:multiply"
                    transform="matrix(1.15 0 0 1.15 248.5 249.5)" />
                <path fill="#EDC966"
                    d="m89.34 156.862 45.702 45.702c12.444-30.048 36.474-54.078 66.522-66.522L155.862 90.34a185.016 185.016 0 0 0-66.522 66.522zm318.32 185.276-45.702-45.702c-12.444 30.048-36.474 54.078-66.522 66.522l45.702 45.702a185.016 185.016 0 0 0 66.522-66.522zm-318.32 0 45.702-45.702c12.444 30.048 36.474 54.078 66.522 66.522l-45.702 45.702a185.016 185.016 0 0 1-66.522-66.522zm318.32-185.276-45.702 45.702c-12.444-30.048-36.474-54.078-66.522-66.522l45.702-45.702a185.016 185.016 0 0 1 66.522 66.522z" />
                <path fill="#EDC966"
                    d="M371.258 249.5c0 67.797-54.96 122.758-122.758 122.758-67.797 0-122.758-54.96-122.758-122.758 0-67.797 54.96-122.758 122.758-122.758 67.797 0 122.758 54.96 122.758 122.758z" />
                <path fill="none" stroke="#EDC966" stroke-linecap="round" stroke-linejoin="round"
                    stroke-width="5.538"
                    d="M281.31 219.209c-8.48-14.51-27.077-23.371-43.592-18.016-9.054 2.936-16.663 10.95-17.669 20.417-3.817 35.947 62.925 17.417 62.03 54.134-.154 6.304-3.557 12.282-8.418 16.3-4.861 4.018-11.052 6.203-17.308 6.998-15.687 1.992-31.67-4.843-41.441-17.168m33.588 41.801v-24.364m0-99.675v-24.311" />
                <path fill="#EDC966"
                    d="M-68.651-126.496-80.555-138.4A160.883 160.883 0 0 0-138.4-80.555l19.757 19.757c10.703-26.054 28.072-48.662 49.992-65.698zm0 252.992L-80.555 138.4A160.883 160.883 0 0 1-138.4 80.555l19.757-19.757c10.703 26.054 28.072 48.662 49.992 65.698z"
                    opacity=".5" style="mix-blend-mode:multiply"
                    transform="matrix(1.15 0 0 1.15 248.5 249.5)" />
                <path fill="#EDC966" d="M248.5 249.5" />
                <path fill="none" stroke="#EDC966" stroke-linecap="round" stroke-linejoin="round"
                    stroke-width="13.8" d="M248.5 249.5" />
            </g>
            <g style="display:none">
                <path />
                <path style="mix-blend-mode:multiply" />
                <path />
                <path />
                <path />
                <path />
                <path />
                <path />
                <path fill="none" />
                <path />
                <path fill="none" />
                <path fill="none" />
                <path style="mix-blend-mode:multiply" />
                <path style="mix-blend-mode:multiply" />
                <path />
                <path fill="none" />
            </g>
            <g style="display:none">
                <path />
                <path style="mix-blend-mode:multiply" />
                <path />
                <path />
                <path />
                <path />
                <path />
                <path fill="none" />
                <path fill="none" />
                <path fill="none" />
                <path style="mix-blend-mode:multiply" />
                <path style="mix-blend-mode:multiply" />
            </g>
            <g fill="none" style="display:none">
                <path />
                <path />
                <path />
                <path />
                <path />
                <path />
            </g>
            <g fill="#EDC966" style="display:block">
                <path
                    d="M254.5 65.5s.25-.5.25 0c41.25-.75 86.875 24.75 86.875 24.75s-.125-.406 0-.031C303.75 66.5 254.5 65.5 254.5 65.5z" />
                <path fill-opacity=".5"
                    d="M254.5 65.5s.25-.5.25 0c41.25-.75 86.875 24.75 86.875 24.75s-.125-.406 0-.031C303.75 66.5 254.5 65.5 254.5 65.5z" />
                <path
                    d="M341.563 90.25s.063-.032 0-.063c49.438 28.063 66.562 66.125 66.562 66.125s.313.5.25.375C391 119.499 341.563 90.25 341.563 90.25z" />
                <path fill-opacity=".5"
                    d="M91.563-159.75s.063-.032 0-.063c49.438 28.063 66.562 66.125 66.562 66.125s.313.5.25.375C141-130.501 91.563-159.75 91.563-159.75z"
                    style="mix-blend-mode:multiply" transform="translate(250 250)" />
                <path
                    d="M254.5 432.694s.25.5.25 0c41.25.75 86.875-24.75 86.875-24.75s-.125.406 0 .031c-37.875 23.719-87.125 24.719-87.125 24.719z" />
                <path fill-opacity=".5"
                    d="M254.5 432.694s.25.5.25 0c41.25.75 86.875-24.75 86.875-24.75s-.125.406 0 .031c-37.875 23.719-87.125 24.719-87.125 24.719z" />
                <path
                    d="M341.563 407.944s.063.032 0 .063c49.438-28.063 66.562-66.125 66.562-66.125s.313-.5.25-.375c-17.375 37.188-66.812 66.437-66.812 66.437z" />
                <path fill-opacity=".5"
                    d="M91.563-159.75s.063-.032 0-.063c49.438 28.063 66.562 66.125 66.562 66.125s.313.5.25.375C141-130.501 91.563-159.75 91.563-159.75z"
                    style="mix-blend-mode:multiply" transform="matrix(1 0 0 -1 250 248.194)" />
                <path
                    d="M408.313 156.625s.062-.094.062-.188C463.5 263 408 340.688 408 340.688v.125c30.75-47.313 28.016-107.14 17.47-143.808-7.049-24.51-17.157-40.38-17.157-40.38z" />
                <path fill-opacity=".5"
                    d="M158.313-93.375s.062-.094.062-.188C213.5 13 158 90.688 158 90.688v.125c30.75-47.313 28.016-107.14 17.47-143.808-7.049-24.51-17.157-40.38-17.157-40.38z"
                    style="mix-blend-mode:multiply" transform="translate(250 250)" />
            </g>
            <g style="display:block">
                <path fill="none" stroke="#916E10" stroke-linecap="round" stroke-linejoin="round"
                    stroke-width="3.22"
                    d="M248.5 65.363c-101.696 0-184.137 82.441-184.137 184.137S146.804 433.637 248.5 433.637 432.637 351.196 432.637 249.5 350.196 65.363 248.5 65.363zm0 306.895c-67.797 0-122.758-54.96-122.758-122.758 0-67.797 54.96-122.758 122.758-122.758 67.797 0 122.758 54.96 122.758 122.758 0 67.797-54.96 122.758-122.758 122.758z" />
                <path fill="none" stroke="#916E10" stroke-linecap="round" stroke-linejoin="round"
                    stroke-width="3.22"
                    d="m89.34 156.862 45.702 45.702c12.444-30.048 36.474-54.078 66.522-66.522L155.862 90.34a185.016 185.016 0 0 0-66.522 66.522zm318.32 185.276-45.702-45.702c-12.444 30.048-36.474 54.078-66.522 66.522l45.702 45.702a185.016 185.016 0 0 0 66.522-66.522zm-318.32 0 45.702-45.702c12.444 30.048 36.474 54.078 66.522 66.522l-45.702 45.702a185.016 185.016 0 0 1-66.522-66.522zm318.32-185.276-45.702 45.702c-12.444-30.048-36.474-54.078-66.522-66.522l45.702-45.702a185.016 185.016 0 0 1 66.522 66.522z" />
                <path fill="none" stroke="#916E10" stroke-linecap="round" stroke-linejoin="round"
                    stroke-width="3.22"
                    d="M371.258 249.5c0 67.797-54.96 122.758-122.758 122.758-67.797 0-122.758-54.96-122.758-122.758 0-67.797 54.96-122.758 122.758-122.758 67.797 0 122.758 54.96 122.758 122.758z" />
                <path fill="#EDC966" d="M248.5 249.5" />
                <path fill="none" stroke="#F24C00" stroke-linecap="round" stroke-linejoin="round"
                    stroke-width="8.05" d="M248.5 249.5" />
                <path fill="#EDC966" d="M248.5 249.5" />
                <path fill="none" stroke="#F24C00" stroke-linecap="round" stroke-linejoin="round"
                    stroke-width="8.05" d="M248.5 249.5" />
            </g>
            <path fill="none" stroke="#916E10" stroke-linecap="round" stroke-linejoin="round"
                stroke-width="2.8"
                d="M254.5 65.5s.25-.5.25 0c41.25-.75 86.875 24.75 86.875 24.75s-.125-.406 0-.031C303.75 66.5 254.5 65.5 254.5 65.5zm87.063 24.75s.063-.032 0-.063c49.438 28.063 66.562 66.125 66.562 66.125s.313.5.25.375C391 119.499 341.563 90.25 341.563 90.25zM254.5 432.69s.25.5.25 0c41.25.75 86.88-24.75 86.88-24.75s-.13.41 0 .04c-37.88 23.71-87.13 24.71-87.13 24.71zm87.06-24.75s.07.04 0 .07c49.44-28.07 66.57-66.13 66.57-66.13s.31-.5.25-.37c-17.38 37.19-66.82 66.43-66.82 66.43zm66.753-251.315s.062-.094.062-.188C463.5 263 408 340.688 408 340.688v.125c30.75-47.313 28.016-107.14 17.47-143.808-7.049-24.51-17.157-40.38-17.157-40.38z"
                style="display:block" />
            <g style="display:none">
                <path />
                <path style="mix-blend-mode:multiply" />
                <path />
                <path />
                <path />
                <path />
                <path />
                <path />
                <path fill="none" />
                <path />
                <path fill="none" />
                <path />
                <path fill="none" />
                <path style="mix-blend-mode:multiply" />
                <path style="mix-blend-mode:multiply" />
                <path />
                <path fill="none" />
            </g>
            <g style="display:none">
                <path />
                <path style="mix-blend-mode:multiply" />
                <path />
                <path />
                <path />
                <path />
                <path />
                <path fill="none" />
                <path fill="none" />
                <path fill="none" />
                <path style="mix-blend-mode:multiply" />
                <path style="mix-blend-mode:multiply" />
                <path />
                <path fill="none" />
            </g>
            <g style="display:none">
                <path />
                <path style="mix-blend-mode:multiply" />
                <path />
                <path />
                <path />
                <path />
                <path />
                <path />
                <path fill="none" />
                <path />
                <path fill="none" />
                <path />
                <path fill="none" />
                <path style="mix-blend-mode:multiply" />
                <path style="mix-blend-mode:multiply" />
                <path />
                <path fill="none" />
            </g>
            <g style="display:none">
                <path />
                <path style="mix-blend-mode:multiply" />
                <path />
                <path />
                <path />
                <path />
                <path />
                <path fill="none" />
                <path fill="none" />
                <path fill="none" />
                <path style="mix-blend-mode:multiply" />
                <path style="mix-blend-mode:multiply" />
            </g>
            <g fill="none" style="display:none">
                <path />
                <path />
                <path />
                <path />
                <path />
                <path />
            </g>
            <g style="display:none">
                <path />
                <path />
                <path />
                <path style="mix-blend-mode:multiply" />
                <path />
                <path />
                <path />
                <path style="mix-blend-mode:multiply" />
                <path />
                <path style="mix-blend-mode:multiply" />
            </g>
            <g style="display:none">
                <path fill="none" />
                <path fill="none" />
                <path fill="none" />
                <path fill="none" />
                <path fill="none" />
                <path fill="none" />
                <path />
                <path fill="none" />
                <path />
                <path fill="none" />
            </g>
            <path fill="none" style="display:none" />
        </g>
        <g class="com" style="display:none">
            <path />
            <path />
            <path />
            <path />
            <path />
            <path />
            <path />
            <path />
            <path />
            <path />
            <path />
            <path />
        </g>
    </g>
</svg>